<svg xmlns="http://www.w3.org/2000/svg" width="157.112" height="80" viewBox="0 0 157.112 80">
  <g id="tepuia-logo-horizontal" transform="translate(0 0.001)">
    <g id="Group_6" data-name="Group 6" transform="translate(0 -0.001)">
      <path id="Path_6" data-name="Path 6" d="M9.154,63.5c2.512-1.776,5.441-3.428,7.979-6.213,1.708-1.875,3.114-3.274,3.328-6.522.241-3.647-1.6-4.708-2.739-7.215A12.47,12.47,0,0,1,16.581,40c-.4-3.554.371-6.806,1.157-10.187,3.982-1.586,7.893-3.244,10.654-6.055a14.851,14.851,0,0,1,2.743,3.667,13.594,13.594,0,0,1,1.581,4.651,21.538,21.538,0,0,1-.332,4.051,18.863,18.863,0,0,1-1.265,4.463c-1.187,2.592-3.59,4.457-4.015,7.093,2.066-.031,3.515-.679,5.381-.91a21.371,21.371,0,0,1,.582-8.013c.494-2.224.806-4.258,1.165-6.454a13.721,13.721,0,0,0,.348-3.52,7.532,7.532,0,0,0-.627-2.119,19.413,19.413,0,0,0-4.984-7.145c-.984-.829-3.151-.595-4.922-.349a19.365,19.365,0,0,0-5.039,1.6,15.148,15.148,0,0,0-1.41.765c-2.414,1.419-3.86,6.4-4.785,13.12-.409,2.97-.077,6.521-1.2,9.268C9.547,48.958,3.855,51.544,1.8,56.352.112,60.281-.132,64.789.052,69.006a42.873,42.873,0,0,0,1.175,8.778,27.6,27.6,0,0,0,1.429,4.157c.7,1.611,2.427,3.937,2.543,3.72a40.562,40.562,0,0,1-1.27-7.119A21.663,21.663,0,0,1,4.06,73C4.55,69.316,6.035,65.7,9.154,63.5Z" transform="translate(0 -5.676)" fill="#302a2b" fill-rule="evenodd"/>
      <path id="Path_7" data-name="Path 7" d="M38.653,3.717c.65-.2.611-1.831.859-2.46A4.456,4.456,0,0,1,41.281.685a6.575,6.575,0,0,1,.682,2.972c-.319.251-.916.226-1.143.57a101.049,101.049,0,0,1-.6,10.134c.47-.165.844-1.634,1.05-2.38C42.246,8.46,43.749,3.631,41.853,0a7.367,7.367,0,0,0-2.972.8A11.48,11.48,0,0,0,38.653,3.717Z" transform="translate(-10.715 0.001)" fill="#302a2b" fill-rule="evenodd"/>
      <path id="Path_8" data-name="Path 8" d="M38.717,5.8A25.154,25.154,0,0,0,39,10.5c.15,1.6.159,3.2.335,4.282.078.479.08.836.57,1.143a66.989,66.989,0,0,0,.469-10.17C40.085,5.593,38.931,5.306,38.717,5.8Z" transform="translate(-10.723 -1.532)" fill="#302a2b" fill-rule="evenodd"/>
      <path id="Path_9" data-name="Path 9" d="M41.011,65.912c.095.752.679,1.668.262,2.418-.135.244-.361.476-.522.71a3.961,3.961,0,0,1,1.574-.095c.762.172,1,1.413.966,2,3.063-1.258,6.219-5.948,6.64-10.391.264-2.8-1.054-3.5-3.433-3.341-.709.048-1.75.241-1.934.593,1.384-.272,3.9-.22,4.26,1.093C49.173,60.163,46.883,64.074,41.011,65.912Z" transform="translate(-11.303 -16.123)" fill="#302a2b" fill-rule="evenodd"/>
      <path id="Path_10" data-name="Path 10" d="M30.287,73.093c-.627-.516-1.438-.848-1.826-1.6A13.968,13.968,0,0,1,29.5,69.7c-1.642-.074-3.109-.491-4.7-.618a12.022,12.022,0,0,1-1.145,1.6,31.128,31.128,0,0,1-7.966,6.6c3.756.579,8.5.009,11.729-.427a20.687,20.687,0,0,0,2.8-.508c-.616-.507-1.246-.9-1.2-1.661C29.074,73.906,29.87,73.533,30.287,73.093Z" transform="translate(-4.354 -19.455)" fill="#302a2b" fill-rule="evenodd"/>
      <path id="Path_11" data-name="Path 11" d="M39.974,70.645a.851.851,0,0,0-.537-.832,1.051,1.051,0,0,0-.208-.069.883.883,0,0,0-1.127.9.893.893,0,0,0,1.369.641A.825.825,0,0,0,39.974,70.645ZM39.4,70.8a.4.4,0,0,1-.306.176.536.536,0,0,1-.487-.181.419.419,0,0,1,.17-.6.517.517,0,0,1,.619.049A.449.449,0,0,1,39.4,70.8Z" transform="translate(-10.567 -19.607)" fill="#302a2b" fill-rule="evenodd"/>
      <path id="Path_12" data-name="Path 12" d="M36.476,73.152c1.05-.061,1.015-2.236-.341-1.715A.884.884,0,0,0,36.476,73.152Zm.271-1.33a.468.468,0,0,1-.032.712.48.48,0,0,1-.38.1.451.451,0,0,1-.127-.033.434.434,0,0,1-.261-.32C35.858,71.846,36.423,71.589,36.747,71.822Z" transform="translate(-9.857 -20.068)" fill="#302a2b" fill-rule="evenodd"/>
      <path id="Path_13" data-name="Path 13" d="M41.288,76.072c.469.023.858-.872.52-1.2l-.007-.007C41.316,74.417,40.6,76.038,41.288,76.072Z" transform="translate(-11.374 -21.031)" fill="#302a2b" fill-rule="evenodd"/>
      <path id="Path_14" data-name="Path 14" d="M37.148,76.949a.715.715,0,0,0,.6-.017.337.337,0,0,0,.134-.168c.254-.673-1.326-.874-1.31-.315C36.578,76.659,36.985,76.886,37.148,76.949Z" transform="translate(-10.144 -21.406)" fill="#302a2b" fill-rule="evenodd"/>
      <path id="Path_15" data-name="Path 15" d="M42.574,79.318a.442.442,0,0,0,.053.609.993.993,0,0,0,1.017-.128.549.549,0,0,0,.261-.447C43.88,78.618,42.863,78.958,42.574,79.318Z" transform="translate(-11.782 -22.192)" fill="#302a2b" fill-rule="evenodd"/>
      <path id="Path_16" data-name="Path 16" d="M39.4,80.979a.476.476,0,0,0-.1-.211c-.133-.167-.344-.154-.539-.153-.328,0-.948.133-.875.593C37.985,81.848,39.506,81.564,39.4,80.979Z" transform="translate(-10.506 -22.669)" fill="#302a2b" fill-rule="evenodd"/>
      <path id="Path_17" data-name="Path 17" d="M38.757,75.413c3.9-3.659,4.3-5.08,4.611-5.864l.014-.034c.013-.034.025-.066.035-.1a.075.075,0,0,0,0-.012.084.084,0,0,1,0-.012,1.86,1.86,0,0,0,.083-.431.147.147,0,0,0,0-.027,9.879,9.879,0,0,0-.1-2.128,32.992,32.992,0,0,0-1.875-6.437.675.675,0,0,0-.174.035c-.235,6.21-3.21,9.672-6.871,12.447,1.894,1.782.229,2.6-1.946,3.312-1.835.6-3.875,1.87-4.683.264-.187-.588.1-.926.113-1.412-4.748.906-10.359,1.778-16,.9a14,14,0,0,0-4.6,7.978C21.3,85.89,34.065,79.817,38.757,75.413Z" transform="translate(-2.047 -17.07)" fill="#302a2b" fill-rule="evenodd"/>
      <g id="Group_5" data-name="Group 5" transform="translate(9.319 55.884)">
        <g id="Group_3" data-name="Group 3" transform="translate(17.038 11.585)">
          <path id="Path_18" data-name="Path 18" d="M37.3,103.153c.507-.223.446-1.029.483-1.476a21.054,21.054,0,0,0-.016-3.981,15.112,15.112,0,0,0-.422-2.352c-.062-.238-.324-1.7-.807-1.34-.274.2.444,2.118.63,4.066A50.085,50.085,0,0,1,37.3,103.153Z" transform="translate(-36.474 -93.949)" fill="#302a2b" fill-rule="evenodd"/>
        </g>
        <path id="Path_19" data-name="Path 19" d="M45.043,101.162A33.4,33.4,0,0,0,44.5,90.7c-.176-.418-.6-.132-.509.377a38.332,38.332,0,0,1,.6,7.69C44.587,99.587,44.345,100.563,45.043,101.162Z" transform="translate(-21.516 -81.407)" fill="#302a2b" fill-rule="evenodd"/>
        <path id="Path_20" data-name="Path 20" d="M58.17,80.677c-.116-.9-.67-2.367-.243-2.76.687,0,.895,1.4,1.025,2.286.525,3.552.277,8.4-.927,10.855a.207.207,0,0,1-.232.165c-.016-.135-.1-.076,0-.393C58.657,88.062,58.547,83.6,58.17,80.677Z" transform="translate(-25.336 -77.917)" fill="#302a2b" fill-rule="evenodd"/>
        <path id="Path_21" data-name="Path 21" d="M52.284,84.33c0-.036-.011-.072-.016-.108A.551.551,0,0,0,52.2,84a.209.209,0,0,0-.209-.1.22.22,0,0,0-.152.133,7.289,7.289,0,0,0-.181,2.1c.018.787.037,1.573.074,2.359.1,2.187-.053,4.542,1.136,5.587C52.257,91.287,52.4,88.058,52.284,84.33Z" transform="translate(-23.645 -79.575)" fill="#302a2b" fill-rule="evenodd"/>
        <path id="Path_22" data-name="Path 22" d="M29.269,96.528c-.044-.177-.143-.386-.325-.163-.25.307-.138.816-.128,1.158.013.434.027.867.053,1.3.064,1.037-.093,2.194.681,3.017l.062.012a17.971,17.971,0,0,1-.168-2.227c-.018-.985-.048-1.971-.149-2.952A1.183,1.183,0,0,0,29.269,96.528Z" transform="translate(-17.302 -83.007)" fill="#302a2b" fill-rule="evenodd"/>
        <g id="Group_4" data-name="Group 4" transform="translate(5.307 13.148)">
          <path id="Path_23" data-name="Path 23" d="M21.166,101.482c.014.058.03.116.047.173a.465.465,0,0,1-.262-.1c-.191-.154-.226-.47-.3-.69a6.525,6.525,0,0,1-.226-.866,9.121,9.121,0,0,1-.181-1.816,7.031,7.031,0,0,1,.067-1c.043-.293.163-.886.45-1.041a.274.274,0,0,1,.286.02,14.781,14.781,0,0,0-.179,1.775c-.02.367-.005.736.01,1.1A11.906,11.906,0,0,0,21.166,101.482Z" transform="translate(-20.24 -96.111)" fill="#302a2b" fill-rule="evenodd"/>
        </g>
        <path id="Path_24" data-name="Path 24" d="M13.67,105.908a38.746,38.746,0,0,1-.761-8.2c.014-.429.039-.857.08-1.284.027-.28-.022-.916.279-1.064.376-.186.412.271.412.5,0,.373,0,.746,0,1.119-.005.723-.012,1.445-.009,2.167a41.838,41.838,0,0,0,.2,4.329C13.957,104.3,14.3,105.24,13.67,105.908Z" transform="translate(-12.896 -82.744)" fill="#302a2b" fill-rule="evenodd"/>
      </g>
    </g>
    <g id="Group_7" data-name="Group 7" transform="translate(51.485 13.046)">
      <path id="Path_25" data-name="Path 25" d="M72.395,19H86.456v3.392h-5.2V57.3H77.592V22.391h-5.2V19Z" transform="translate(-72.394 -18.452)" fill="#302a2b"/>
      <path id="Path_26" data-name="Path 26" d="M97,19h11.436v3.392h-7.77V36.4h6.949V39.79h-6.949V53.906h7.77V57.3H97Z" transform="translate(-79.219 -18.452)" fill="#302a2b"/>
      <path id="Path_27" data-name="Path 27" d="M134.961,42.471V57.3H131.3V19h7c4.213,0,7,2.681,7,6.894v9.575c0,4.377-2.79,7-6.949,7Zm3.392-3.392c1.97,0,3.283-1.368,3.283-3.611V25.893a3.205,3.205,0,0,0-3.337-3.5h-3.338V39.079h3.392Z" transform="translate(-88.731 -18.452)" fill="#302a2b"/>
      <path id="Path_28" data-name="Path 28" d="M161.157,19V50.9a3.251,3.251,0,0,0,3.338,3.556c2.079,0,3.337-1.368,3.337-3.556V19H171.5V50.9c0,4.322-2.9,6.949-7,6.949s-7-2.626-7-6.949V19Z" transform="translate(-95.997 -18.452)" fill="#302a2b"/>
      <path id="Path_29" data-name="Path 29" d="M188.715,57.3H185.05V19h3.665Z" transform="translate(-103.641 -18.452)" fill="#302a2b"/>
      <path id="Path_30" data-name="Path 30" d="M208.639,57.089V42.206h-6.675V57.088H198.3V25.136c0-4.268,2.954-6.894,7-6.894s7,2.626,7,6.894V57.089Zm-6.675-18.275h6.675V25.136a3.341,3.341,0,1,0-6.675,0Z" transform="translate(-107.316 -18.242)" fill="#302a2b"/>
    </g>
    <g id="Group_9" data-name="Group 9" transform="translate(56.474 59.16)">
      <g id="Group_8" data-name="Group 8">
        <path id="Path_31" data-name="Path 31" d="M82.067,87.673,80.708,85.65h-.426v1.971H79.3V82.47h1.6c1.15,0,1.843.545,1.843,1.546a1.435,1.435,0,0,1-1.045,1.448l1.388,2.023ZM80.82,83.261h-.545V84.9h.5c.612,0,.993-.291.993-.828C81.768,83.552,81.44,83.261,80.82,83.261Z" transform="translate(-79.297 -82.373)" fill="#302a2b"/>
        <path id="Path_32" data-name="Path 32" d="M88.391,87.681A2.686,2.686,0,1,1,90.817,85,2.4,2.4,0,0,1,88.391,87.681Zm.007-4.524c-.881,0-1.411.724-1.411,1.851s.53,1.851,1.411,1.851,1.419-.724,1.419-1.851S89.28,83.157,88.4,83.157Z" transform="translate(-81.151 -82.336)" fill="#302a2b"/>
        <path id="Path_33" data-name="Path 33" d="M96.451,83.328v4.292h-.986V83.328H93.913V82.47h4l.142.858Z" transform="translate(-83.351 -82.373)" fill="#302a2b"/>
        <path id="Path_34" data-name="Path 34" d="M103.211,87.681A2.686,2.686,0,1,1,105.637,85,2.4,2.4,0,0,1,103.211,87.681Zm.008-4.524c-.881,0-1.411.724-1.411,1.851s.53,1.851,1.411,1.851,1.418-.724,1.418-1.851S104.1,83.157,103.219,83.157Z" transform="translate(-85.261 -82.336)" fill="#302a2b"/>
        <path id="Path_35" data-name="Path 35" d="M112.215,87.673l-1.359-2.023h-.425v1.971h-.986V82.47h1.6c1.15,0,1.844.545,1.844,1.546a1.436,1.436,0,0,1-1.045,1.448l1.388,2.023Zm-1.247-4.412h-.545V84.9h.5c.612,0,.993-.291.993-.828C111.916,83.552,111.588,83.261,110.968,83.261Z" transform="translate(-87.659 -82.373)" fill="#302a2b"/>
        <path id="Path_36" data-name="Path 36" d="M118.457,87.711a1.905,1.905,0,0,1-2.061-2.083V82.47h.985v3.105c0,.784.358,1.277,1.083,1.277s1.1-.463,1.1-1.254V82.47h.993v3.136A1.94,1.94,0,0,1,118.457,87.711Z" transform="translate(-89.587 -82.373)" fill="#302a2b"/>
        <path id="Path_37" data-name="Path 37" d="M125.744,82.439H126.8l1.889,5.046-.986.179-.493-1.359h-1.955l-.463,1.307h-.978Zm-.223,3.061h1.411l-.7-1.993Z" transform="translate(-91.643 -82.365)" fill="#302a2b"/>
        <path id="Path_38" data-name="Path 38" d="M132.682,90.233l-.515-.127.344-2.015h1.023Z" transform="translate(-93.961 -83.932)" fill="#302a2b"/>
        <path id="Path_39" data-name="Path 39" d="M142.379,87.621l-2.426-3.546v3.546h-.918V82.47h.933l2.315,3.374V82.47h.918v5.151Z" transform="translate(-95.866 -82.373)" fill="#302a2b"/>
        <path id="Path_40" data-name="Path 40" d="M147.236,87.621V82.47h2.994v.836h-2.015V84.53h1.552l.135.829h-1.687v1.426h2.091v.836Z" transform="translate(-98.141 -82.373)" fill="#302a2b"/>
        <path id="Path_41" data-name="Path 41" d="M158.865,87.6h-.94l-1.142-3.748L155.641,87.6h-.934l-1.44-5.017,1.03-.186.971,3.688,1.075-3.636h.993l1.075,3.636.941-3.636h.993Z" transform="translate(-99.814 -82.353)" fill="#302a2b"/>
        <path id="Path_42" data-name="Path 42" d="M167.85,87.621V86.9l2.665-3.613h-2.426l-.127-.814h3.755v.724l-2.665,3.613h2.6l.127.814Z" transform="translate(-103.859 -82.373)" fill="#302a2b"/>
        <path id="Path_43" data-name="Path 43" d="M175.576,87.621V82.47h2.994v.836h-2.015V84.53h1.552l.135.829h-1.687v1.426h2.091v.836Z" transform="translate(-106.002 -82.373)" fill="#302a2b"/>
        <path id="Path_44" data-name="Path 44" d="M183.458,82.439h1.052l1.889,5.046-.986.179-.493-1.359h-1.955l-.463,1.307h-.978Zm-.224,3.061h1.411l-.7-1.993Z" transform="translate(-107.651 -82.365)" fill="#302a2b"/>
        <path id="Path_45" data-name="Path 45" d="M190.17,87.621V82.47h.993v4.277h1.717l.134.873H190.17Z" transform="translate(-110.049 -82.373)" fill="#302a2b"/>
        <path id="Path_46" data-name="Path 46" d="M197.421,82.439h1.052l1.889,5.046-.986.179-.493-1.359h-1.955l-.463,1.307h-.978ZM197.2,85.5h1.411l-.7-1.993Z" transform="translate(-111.524 -82.365)" fill="#302a2b"/>
        <path id="Path_47" data-name="Path 47" d="M207.684,87.621l-2.426-3.546v3.546h-.918V82.47h.933l2.315,3.374V82.47h.918v5.151Z" transform="translate(-113.98 -82.373)" fill="#302a2b"/>
        <path id="Path_48" data-name="Path 48" d="M214.175,87.621H212.54V82.47h1.635a2.579,2.579,0,1,1,0,5.151Zm-.008-4.337h-.642v3.524h.627a1.559,1.559,0,0,0,1.731-1.762A1.58,1.58,0,0,0,214.167,83.284Z" transform="translate(-116.254 -82.373)" fill="#302a2b"/>
      </g>
    </g>
  </g>
</svg>
